Patient4_TMGait_0pt2_02_right_17_GRF.mot
version=1
nRows=32
nColumns=19
inDegrees=no
endheader
time	F1x	F1y	F1z	M1x	M1y	M1z	F2x	F2y	F2z	M2x	M2y	M2z	EC1x	EC1y	EC1z	EC2x	EC2y	EC2z
37.79	-13.09	853.4466	52.84	-299.2896	-63.0264	981.3424	2.593	30.7306	-3.9432	10.1461	4.3463	32.0086	-0.0592	0.0182	-0.0073	-0.0462	0.0165	0.9585
37.8118	-13.0803	864.9181	53.0655	-303.4138	-62.7064	990.2305	0.85744	23.6711	-3.008	7.8501	3.6504	24.6526	-0.0592	0.0182	-0.0073	-0.0462	0.0165	0.9585
37.8336	-12.8594	874.335	52.906	-306.865	-61.8274	996.2828	-0.36645	16.7354	-2.1331	5.5778	2.8866	17.4312	-0.0592	0.0182	-0.0073	-0.0462	0.0165	0.9585
37.8554	-12.3059	879.3945	52.2351	-308.8362	-60.2404	997.0466	-1.0142	10.649	-1.4098	3.5714	2.1461	11.0955	-0.0592	0.0182	-0.0073	-0.0462	0.0165	0.9585
37.8771	-11.272	878.2795	50.991	-308.6863	-57.8537	990.5762	-1.2399	5.8577	-0.87074	1.9835	1.5167	6.1074	-0.0592	0.0182	-0.0073	-0.0462	0.0165	0.9585
37.8989	-9.6236	870.0283	49.1867	-306.0708	-54.66	975.8632	-1.2101	2.4429	-0.50775	0.84603	1.0382	2.554	-0.0592	0.0182	-0.0073	-0.0462	0.0165	0.9585
37.9207	-7.2848	854.6817	46.9126	-300.99	-50.7546	953.0203	-1.0525	0.24959	-0.29451	0.11074	0.7142	0.27098	-0.0592	0.0182	-0.0073	-0.0462	0.0165	0.9585
37.9425	-4.2609	833.2551	44.3125	-293.7809	-46.3164	923.2676	-0.85548	-0.98521	-0.19926	-0.30733	0.52847	-1.0215	-0.0592	0.0182	-0.0073	-0.0462	0.0165	0.9585
37.9643	-0.62565	807.6139	41.5535	-285.0751	-41.568	888.782	-0.67242	-1.5506	-0.18947	-0.50276	0.45502	-1.6304	-0.0592	0.0182	-0.0073	-0.0462	0.0165	0.9585
37.9861	3.4881	780.2564	38.7997	-275.7246	-36.7414	852.4368	-0.52905	-1.7205	-0.23816	-0.5648	0.46604	-1.8439	-0.0592	0.0182	-0.0073	-0.0462	0.0165	0.9585
38.0079	7.8844	753.9791	36.2009	-266.6884	-32.0622	817.415	-0.43111	-1.7233	-0.32403	-0.56889	0.53422	-1.897	-0.0592	0.0182	-0.0073	-0.0462	0.0165	0.9585
38.0296	12.3344	731.4858	33.8796	-258.9004	-27.7231	786.7608	-0.37008	-1.7327	-0.42681	-0.57412	0.63025	-1.966	-0.0592	0.0182	-0.0073	-0.0462	0.0165	0.9585
38.0514	16.6259	714.9704	31.9293	-253.1243	-23.8717	762.9065	-0.32795	-1.8669	-0.52328	-0.62283	0.72279	-2.1734	-0.0592	0.0182	-0.0073	-0.0462	0.0165	0.9585
38.0732	20.5991	705.7428	30.4306	-249.8224	-20.6268	747.269	-0.28381	-2.1892	-0.59061	-0.73897	0.77891	-2.5864	-0.0592	0.0182	-0.0073	-0.0462	0.0165	0.9585
38.095	24.1742	703.9972	29.4537	-249.0719	-18.0747	740.0183	-0.21542	-2.7017	-0.60508	-0.9243	0.76086	-3.2068	-0.0592	0.0182	-0.0073	-0.0462	0.0165	0.9585
38.1168	27.3479	708.8494	29.0442	-250.5752	-16.2534	740.1479	-0.098369	-3.336	-0.53638	-1.1554	0.62572	-3.9557	-0.0592	0.0182	-0.0073	-0.0462	0.0165	0.9585
38.1386	30.1839	718.6101	29.2081	-253.7537	-15.1454	745.7986	0.091	-3.9361	-0.34781	-1.3775	0.32516	-4.6477	-0.0592	0.0182	-0.0073	-0.0462	0.0165	0.9585
38.1604	32.7783	731.1632	29.9165	-257.8723	-14.6908	754.6909	0.36877	-4.2393	-0.002401	-1.4968	-0.18584	-4.9586	-0.0592	0.0182	-0.0073	-0.0462	0.0165	0.9585
38.1821	35.1898	744.3253	31.1179	-262.161	-14.8219	764.5318	0.73394	-3.8525	0.52896	-1.3717	-0.93883	-4.4097	-0.0592	0.0182	-0.0073	-0.0462	0.0165	0.9585
38.2039	37.3948	756.1213	32.7464	-265.9096	-15.4819	773.3051	1.1609	-2.2394	1.2544	-0.80778	-1.9345	-2.3578	-0.0592	0.0182	-0.0073	-0.0462	0.0165	0.9585
38.2257	39.2893	764.9976	34.7299	-268.546	-16.6311	779.4831	1.5894	1.2605	2.1407	0.43689	-3.1135	1.9834	-0.0592	0.0182	-0.0073	-0.0462	0.0165	0.9585
38.2475	40.6878	769.8302	36.9939	-269.6493	-18.2535	782.0177	1.9122	7.3688	3.0886	2.6284	-4.3186	9.4661	-0.0592	0.0182	-0.0073	-0.0462	0.0165	0.9585
38.2693	41.3506	769.8371	39.4269	-268.9309	-20.3162	780.2211	1.9559	16.7328	3.9025	6.007	-5.2536	20.838	-0.0592	0.0182	-0.0073	-0.0462	0.0165	0.9585
38.2911	41.0728	764.5371	41.8568	-266.2289	-22.7199	773.6783	1.5289	29.7647	4.2842	10.7256	-5.4986	36.5485	-0.0592	0.0182	-0.0073	-0.0462	0.0165	0.9585
38.3129	39.7686	753.7407	44.0766	-261.5085	-25.293	762.1986	0.56437	46.462	3.8933	16.7795	-4.6289	56.5402	-0.0592	0.0182	-0.0073	-0.0462	0.0165	0.9585
38.3346	37.5016	737.6122	45.8836	-254.878	-27.8178	745.8701	-0.74204	66.2062	2.479	23.9341	-2.432	80.0099	-0.0592	0.0182	-0.0073	-0.0462	0.0165	0.9585
38.3564	34.5009	716.7625	47.1248	-246.6083	-30.0704	725.1653	-2.0471	87.8376	0.013602	31.7584	0.98466	105.5056	-0.0592	0.0182	-0.0073	-0.0462	0.0165	0.9585
38.3782	31.1312	692.2145	47.7519	-237.107	-31.882	700.9394	-3.1213	110.0408	-3.2855	39.7759	5.2728	131.4331	-0.0592	0.0182	-0.0073	-0.0462	0.0165	0.9585
38.4	27.8092	665.2556	47.8212	-226.8566	-33.1667	674.3258	-3.8979	131.8681	-7.0261	47.6596	9.9541	156.6826	-0.0592	0.0182	-0.0073	-0.0462	0.0165	0.9585
38.4218	24.8935	637.2443	47.4546	-216.3454	-33.923	646.5705	-4.4183	153.0337	-10.7583	55.3351	14.5351	180.9517	-0.0592	0.0182	-0.0073	-0.0462	0.0165	0.9585
38.4436	22.6023	609.3881	46.8044	-205.9954	-34.2284	618.8281	-4.8142	173.7703	-14.0691	62.9199	18.5964	204.563	-0.0592	0.0182	-0.0073	-0.0462	0.0165	0.9585
38.4654	20.9994	582.5039	46.0148	-196.0846	-34.2072	591.9146	-5.2471	194.5704	-16.7492	70.6097	21.9591	228.1523	-0.0592	0.0182	-0.0073	-0.0462	0.0165	0.9585
